<?xml version="1.0" encoding="utf-8"?>
<!-- Generator: Adobe Illustrator 24.0.1, SVG Export Plug-In . SVG Version: 6.00 Build 0)  -->
<svg version="1.1" xmlns="http://www.w3.org/2000/svg" xmlns:xlink="http://www.w3.org/1999/xlink" x="0px" y="0px"
	 viewBox="0 0 373.77 204.68" style="enable-background:new 0 0 373.77 204.68;" xml:space="preserve">
<style type="text/css">
	.st0{fill:#A7C14B;}
	.st1{fill:#1D99D1;}
	.st2{clip-path:url(#XMLID_36_);fill:#A7C14B;stroke:#FFFFFF;stroke-width:1.05;stroke-linecap:round;stroke-miterlimit:10;}
	.st3{fill:#FFFFFF;}
</style>
<g id="Livello_1">
</g>
<g id="Livello_2">
	<g>
		<path id="XMLID_9_" class="st0" d="M206.97,33.8l-12.26,40.23c-1.26,3.9-1.49,7.56,2.06,7.56c5.16,0,11.81-8.83,18.11-21.66
			c2.18,0.11,5.39,1.83,6.53,3.21c-7.91,17.31-18.57,30.15-31.64,30.15c-7.45,0-10.89-4.01-11.92-9.28
			c-5.16,5.73-11.81,9.28-19.03,9.28c-11.46,0-19.14-7.57-19.14-20.98c0-19.14,13.75-39.54,31.87-39.54
			c7.22,0,12.95,3.67,15.82,10.32l2.87-9.28H206.97z M173.39,48.24c-7.91,0-15.93,11.46-15.93,21.43c0,6.19,3.21,9.74,8.25,9.74
			c8.14,0,16.16-11.46,16.16-21.55C181.87,51.8,178.43,48.24,173.39,48.24z"/>
		<path id="XMLID_12_" class="st0" d="M215.68,33.8h6.99l4.47-14.67l18.34-5.04l-6.08,19.71h15.13l-3.78,12.61h-15.24l-7.22,23.61
			c-2.41,7.91,0,11.58,4.93,11.58c7.91,0,16.51-10.43,22.01-21.66c2.18,0.11,5.39,1.83,6.53,3.21
			c-7.79,17.08-18.57,30.15-34.16,30.15c-16.51,0-18.8-13.98-14.56-27.74l5.73-19.14h-6.88L215.68,33.8z"/>
		<path id="XMLID_21_" class="st0" d="M147.28,59.93c-6.3,12.84-12.84,21.66-18.11,21.66c-3.44,0-3.21-3.67-2.06-7.56l3.67-12.15
			c4.24-13.53-2.64-18.23-15.02-23.15l-3.09-1.15l3.44-8.83c-1.72-2.87-4.81-5.04-8.94-5.04c-5.62,0-9.97,4.47-9.97,10.32
			c0,3.55,1.49,6.53,4.01,8.71c-4.36,12.15-11.35,28.31-21.21,46.31l6.65,3.21c9.51-17.19,16.16-33.47,20.63-45.73l5.04,2.29
			c4.58,2.06,4.24,4.81,2.41,10.89l-3.21,10.66c-2.98,9.74-2.75,22.92,10.66,22.92c13.18,0,23.73-12.84,31.64-30.15
			C152.67,61.77,149.46,60.05,147.28,59.93z"/>
		<path id="XMLID_6_" class="st0" d="M290.53,59.93C284.11,73,277.92,81.6,271.5,81.6c-4.47,0-5.16-3.9-3.67-8.83l11.92-38.97
			h-16.74l-10.77,35.08c-4.01,13.3-0.69,24.42,12.72,24.42c13.87,0,23.96-12.38,32.09-30.15C295.92,61.77,292.71,60.05,290.53,59.93
			z"/>
		<path id="XMLID_7_" class="st1" d="M272.98,26.33c6.3,0,11.05-4.75,11.05-10.92s-4.75-11.18-11.05-11.18
			c-6.17,0-10.92,5.01-10.92,11.18S266.81,26.33,272.98,26.33z"/>
		<g id="XMLID_5_">
			<path id="XMLID_16_" class="st1" d="M136.82,144.03c0,0-3.58,0.95-3.99,0.75s0.48-1.56-1.24-4.13
				c-2.59-1.44-16.72,2.56-22.05,2.15c-5.33-0.41-7.79-0.1-21.23-9.54c-13.44-9.44-25.54-16.82-25.54-17.74
				c0-0.84,2.3-3.76,4.57-8.55l0.09,0.04c1.81-3.82,3.48-8.14,4.98-13.01l11.68-38.35H65.64l-4.3,14.01
				c-4.42,6.88-10.57,10.2-17.33,10.2c-11.18,0-18.56-8.73-18.56-23.23c0-18.44,12.78-35.77,29.01-35.77
				c7.01,0,10.82,3.2,11.68,7.01c-3.69,1.72-6.27,5.41-6.27,9.83c0,5.9,4.79,10.82,10.82,10.82c8.48,0,13.4-8.73,13.4-16.72
				C84.08,19.89,74.49,6,52.74,6C22.01,6,5.54,34.52,5.54,57.38c0,21.63,14.13,35.4,32.45,35.4c7.62,0,13.52-2.34,18.44-7.01
				l-1.6,5.29c-0.91,2.95-1.89,5.75-2.95,8.35l0.09,0.04c-1.47,2.47-3.12,4.21-4.79,3.97c-2.15-0.31-7.9-8.41-25.44-6.97
				s-10.87,20.1-10.05,21.85c0.82,1.74,4,7.79,12.21,10.77s17.44,3.18,21.13,2.05c3.69-1.13,6.56-3.79,6.87-4.31
				c0.31-0.51,30.97,35.38,32.21,36.41s14.15,15.59,30.77,16.41c16.62,0.82,19.59-3.59,21.03-4.62c0,0,4.21-2.77,5.23-2.87
				L136.82,144.03z M36.08,116.92c0,0-1.59,1.94-6.62-1.5c-5.03-3.44-3.27-5.3-3.27-5.3s1.68-2.12,6.62,1.32
				C37.76,114.89,36.08,116.92,36.08,116.92z"/>
		</g>
		<g id="XMLID_14_">
			<path id="XMLID_24_" class="st0" d="M360.87,100.32c-7.05-2.97-11.67,1.87-11.93-0.86c-0.45-4.75,5.18-16.11,2.36-21.32
				c-4.59-8.5-9.48-6.69-11.59-5.73c-2.39,1.09-8.47,6.53-8.8,6.37c0,0-0.02,0.03-0.04,0.07c0.7-2.35,1.07-4.85,1.07-7.45
				c0-13.64-10.32-24.99-14.67-38.97l-13.41-2.98c-2.98,9.06-8.87,22.53-13.11,30.56c-1.28,5.2-6.02,13.59-6.02,13.59
				c0.65,2.68,1.74,4.38,3.49,6.73c4.74,6.37,9.96,12.43,20.65,12.43c8.09,0,14.75-1.56,20.33-4.32c7.93-3.21,10.48-9.6,12.22-8.83
				c3.21,1.43-3.16,21.11-3.89,22.16c-1.49,2.16-34.65,21.8-43.25,28.4c-8.6,6.6-20.74,14.27-25.46,15.67
				c-2.4,0.72-6.25,0.12-9.31,0c-3.06-0.12-14.28-2.14-15.34-1.9c-1.06,0.24-1.16,3.9-2.45,3.67c-1.3-0.24-2.83,0.59-3.42,1.18
				c-0.59,0.59-1.02,4.18-1.02,4.18l-0.04-6.18l-5.54,0.12l1.06,26.23c0,0,2.78-0.61,3.84-0.13c1.06,0.47,2.52,3.13,8.41,5.72
				c5.89,2.59,21.92,0.82,31.58-5.19c9.66-6.01,29.87-30.82,29.87-30.82c7.5-9.48,24.84-26.75,27.22-28.33
				c1.95-1.29,2.74-1.6,4.1-0.61c0.84,0.61,1.47,3.78,5.19,7.82c4.72,5.13,12.89,7.55,20.81-0.41
				C371.72,113.23,367.93,103.29,360.87,100.32z M304.89,81.73c-4.93,0-8.48-2.98-9.4-6.88c2.75-1.6,4.7-3.68,4.7-7.12
				c0-2.29-0.92-4.36-2.29-5.96c2.87-5.5,5.62-11.46,8.02-17.42c3.21,9.74,8.94,17.89,8.94,25.92
				C314.86,77.37,310.74,81.73,304.89,81.73z M354.26,112.27c-1.77,3.24-4.18,1.07-4.9,0.59c-0.72-0.48-2.45-2.75-1.47-4.61
				c0.79-1.49,4.41-1.47,5.1-0.98S356.02,109.03,354.26,112.27z"/>
		</g>
		<path id="XMLID_27_" class="st0" d="M139.59,143.89c0,0,3.74,25.9,3.74,26.79s8.52,2.81,15.56,9.04c0,0,26,20.15,29.87,20.68
			c1.58,0.21,3.71-0.25,4.83-1.41c0.76-0.78,0.71-2.06,1.65-2.53c0.95-0.47,3.48,0.66,4.44,0.57c1.51-0.14,3.91-1.89,4.54-3.88
			c0.31-0.97,0.32-2.14,1-2.63c0.59-0.43,3.8,1.08,5.24,0.07c0.88-0.62,3.03-2.15,2.4-5.39c-0.14-0.72,0.98-0.92,2.1-0.39
			c0.95,0.45,3.74,0.37,5.69-2.65c1.95-3.02,1.42-5.11,0.75-6.16c-0.67-1.05-28.29-22.53-29.71-23.73
			c-1.42-1.2-9.28-8.83-19.38-8.38s-24.32,0.9-24.32,0.9l-0.22-2.02C147.75,142.77,141.31,143.14,139.59,143.89z"/>
		<g id="XMLID_32_">
			<defs>
				<path id="XMLID_20_" d="M139.59,143.89c0,0,3.74,25.9,3.74,26.79s8.52,2.81,15.56,9.04c0,0,26,20.15,29.87,20.68
					c1.58,0.21,3.71-0.25,4.83-1.41c0.76-0.78,0.71-2.06,1.65-2.53c0.95-0.47,3.48,0.66,4.44,0.57c1.51-0.14,3.91-1.89,4.54-3.88
					c0.31-0.97,0.32-2.14,1-2.63c0.59-0.43,3.8,1.08,5.24,0.07c0.88-0.62,3.03-2.15,2.4-5.39c-0.14-0.72,0.98-0.92,2.1-0.39
					c0.95,0.45,3.74,0.37,5.69-2.65c1.95-3.02,1.42-5.11,0.75-6.16c-0.67-1.05-28.29-22.53-29.71-23.73
					c-1.42-1.2-9.28-8.83-19.38-8.38s-24.32,0.9-24.32,0.9l-0.22-2.02C147.75,142.77,141.31,143.14,139.59,143.89z"/>
			</defs>
			<clipPath id="XMLID_36_">
				<use xlink:href="#XMLID_20_"  style="overflow:visible;"/>
			</clipPath>
			<path id="XMLID_28_" class="st2" d="M215.31,186.9c0,0-15.34-14.1-16.35-15.98"/>
			<path id="XMLID_29_" class="st2" d="M211.03,195.46c0,0-14.33-11.22-15.34-12.78"/>
			<path id="XMLID_30_" class="st2" d="M203.35,200.87c0,0-16.17-8.36-17.45-9.7"/>
		</g>
		<g id="XMLID_18_">
			<path class="st1" d="M221.83,175.34c-11.44-9.58-28.92-24.07-30.19-24.72h0c-0.01,0-0.41-0.1-2.03-0.1
				c-2.6,0-6.57,0.28-7.72,0.54c-0.91,0.21-3.03,2.26-4.43,3.61c-0.96,0.92-1.71,1.65-2.22,2c-0.99,0.67-2.59,1.06-4.39,1.06
				c-1.87,0-3.45-0.42-4.23-1.12c-0.38-0.34-0.57-0.86-0.57-1.54c-0.01-1.4,0.78-3.32,1.72-4.19c0.1-0.1,0.54-0.59,1.01-1.11
				c4.07-4.57,8.54-9.31,10.77-9.83c1.26-0.29,2.68-0.42,4.73-0.42c1.8,0,4.07,0.1,6.93,0.22l3.1,0.13
				c3.01,0.12,5.69,2.02,8.52,4.03c2.67,1.89,5.43,3.85,8.4,4.11c1.47,0.13,3.8,0.19,6.92,0.19c5.34,0,11.19-0.19,11.25-0.2
				l0.78-0.03v25.33l-0.82-0.07c-0.01,0-0.84-0.08-1.8-0.08c-0.89,0-1.6,0.06-2.05,0.19c-0.45,0.12-1.77,1.13-2.72,1.99l-0.48,0.44
				L221.83,175.34z"/>
			<path class="st3" d="M184.3,140.25c2.38,0,5.5,0.17,10,0.35c5.62,0.23,10.61,7.58,16.89,8.14c1.69,0.15,4.28,0.2,6.99,0.2
				c5.41,0,11.28-0.2,11.28-0.2v23.74c0,0-0.86-0.08-1.87-0.08c-0.77,0-1.63,0.05-2.24,0.21c-0.91,0.24-3.03,2.16-3.03,2.16
				s-29.19-24.44-30.38-24.84c-0.35-0.12-1.22-0.16-2.33-0.16c-2.66,0-6.67,0.28-7.88,0.56c-1.72,0.4-5.61,4.84-6.89,5.72
				c-0.93,0.63-2.48,0.93-3.97,0.93c-1.56,0-3.06-0.33-3.72-0.93c-0.84-0.76,0.07-3.63,1.16-4.63c0.69-0.64,8.61-10.11,11.44-10.76
				C180.99,140.36,182.4,140.25,184.3,140.25 M184.3,138.75L184.3,138.75c-2.12,0-3.58,0.13-4.9,0.44
				c-2.3,0.53-6.13,4.41-11.16,10.07c-0.42,0.47-0.86,0.96-0.96,1.07c-1.09,1.01-1.97,3.14-1.96,4.74c0.01,1.12,0.45,1.76,0.82,2.09
				c1.31,1.19,3.74,1.32,4.73,1.32c0.92,0,3.23-0.12,4.81-1.19c0.56-0.38,1.34-1.13,2.32-2.08c1.08-1.05,3.33-3.22,4.08-3.42
				c0.99-0.23,4.83-0.52,7.54-0.52c1.1,0,1.59,0.05,1.78,0.08c2.09,1.37,19.35,15.69,29.96,24.57l1,0.84l0.97-0.87
				c0.94-0.85,2.08-1.71,2.44-1.83c0.2-0.05,0.74-0.15,1.83-0.15c0.92,0,1.72,0.07,1.73,0.07l1.63,0.15l0-1.64v-23.74v-1.55
				l-1.55,0.05c-0.06,0-5.9,0.2-11.23,0.2c-3.1,0-5.41-0.06-6.86-0.19c-2.77-0.24-5.44-2.14-8.03-3.97c-2.8-1.98-5.7-4.04-8.93-4.17
				c-1.11-0.05-2.14-0.09-3.09-0.13C188.39,138.85,186.12,138.75,184.3,138.75L184.3,138.75L184.3,138.75z"/>
		</g>
		<g id="XMLID_4_">
			<path class="st1" d="M163.07,192.82c-0.92,0-2.02-0.29-3.08-0.82c-2.03-1.02-1.93-3.33-1.89-4.32c0.06-1.51,1.92-9.69,4.1-10.53
				c0.61-0.24,1.17-0.35,1.71-0.35c0.89,0,1.57,0.32,2.16,0.6c0.14,0.06,0.27,0.13,0.41,0.19c2.22,0.97,2.22,2.96,2.22,4.56
				c-0.15,1.98-2.28,7.98-3.92,10.12l-0.09,0.12l-0.12,0.08C164.18,192.7,163.67,192.82,163.07,192.82z"/>
			<path class="st3" d="M163.91,177.6c0.9,0,1.53,0.41,2.25,0.72c1.74,0.76,1.74,2.28,1.74,3.82c-0.15,1.86-2.25,7.67-3.76,9.63
				c-0.27,0.17-0.64,0.25-1.08,0.25c-0.78,0-1.76-0.26-2.72-0.74c-1.5-0.75-1.5-2.46-1.45-3.57c0.08-1.84,2.05-9.23,3.59-9.82
				C163.04,177.69,163.5,177.6,163.91,177.6 M163.91,176L163.91,176c-0.64,0-1.29,0.13-2,0.4c-2.8,1.08-4.56,10.17-4.61,11.24
				c-0.04,1.04-0.16,3.82,2.33,5.07c1.17,0.59,2.39,0.91,3.43,0.91c0.75,0,1.4-0.16,1.92-0.49l0.25-0.15l0.18-0.23
				c1.65-2.15,3.91-8.26,4.08-10.48l0.01-0.06v-0.06c0-1.64,0-4.11-2.7-5.29c-0.13-0.06-0.26-0.12-0.39-0.18
				C165.77,176.38,164.98,176,163.91,176L163.91,176z"/>
		</g>
		<g id="XMLID_19_">
			<path class="st1" d="M170.8,195.54c-0.77,0-2.01-0.19-2.81-0.54c-1.35-0.59-2.05-2.57-1.57-4.41c0.4-1.52,3.02-8.01,3.14-8.29
				c0.12-0.4,0.65-0.94,1.67-0.94c0.57,0,1.25,0.17,2.05,0.5c1,0.44,1.73,1.24,2.12,2.33c0.21,0.59,0.43,1.67,0.21,2.11
				c-0.1,0.21-0.68,1.76-1.2,3.14c-1.76,4.68-2.06,5.41-2.25,5.64C171.84,195.49,171.27,195.54,170.8,195.54z"/>
			<path class="st3" d="M171.23,182.16c0.4,0,0.95,0.11,1.74,0.44c1.97,0.87,1.97,3.26,1.92,3.35c-0.28,0.56-3.08,8.29-3.35,8.63
				c-0.09,0.11-0.37,0.16-0.74,0.16c-0.75,0-1.86-0.2-2.49-0.47c-0.93-0.41-1.51-1.99-1.12-3.48s3.1-8.19,3.1-8.19
				S170.44,182.16,171.23,182.16 M171.23,180.56c-1.39,0-2.16,0.77-2.42,1.47c-0.33,0.82-2.76,6.83-3.16,8.36
				c-0.58,2.21,0.33,4.61,2.02,5.35c0.91,0.4,2.26,0.6,3.13,0.6c0.59,0,1.44-0.08,1.99-0.75c0.26-0.32,0.4-0.6,2.37-5.86
				c0.5-1.33,1.06-2.83,1.18-3.08c0.46-0.94-0.18-2.71-0.18-2.72c-0.47-1.3-1.35-2.26-2.54-2.78
				C172.69,180.75,171.91,180.56,171.23,180.56L171.23,180.56z"/>
		</g>
		<g id="XMLID_26_">
			<path class="st1" d="M178.56,199.79c-1.24,0-4.59-1.17-5.46-3.43l-0.05-0.14v-0.15c0-1.89,2.46-8.38,4.13-8.7
				c0.2-0.04,0.42-0.07,0.64-0.07c0.71,0,1.96,0.29,2.32,2.21c0.5,2.69,0.34,8.57-0.72,9.85
				C179.1,199.74,178.74,199.79,178.56,199.79z"/>
			<path class="st3" d="M177.81,188.11c0.63,0,1.29,0.3,1.53,1.56c0.57,3.06,0.15,9.33-0.78,9.33s-3.97-0.99-4.72-2.92
				c0-2.17,2.55-7.74,3.48-7.92C177.48,188.13,177.64,188.11,177.81,188.11 M177.81,186.51c-0.25,0-0.51,0.03-0.79,0.08
				c-2.29,0.44-4.78,7.34-4.78,9.49v0.3l0.11,0.28c1.07,2.77,4.88,3.94,6.21,3.94c0.56,0,1.08-0.25,1.46-0.71
				c1.32-1.6,1.37-7.94,0.89-10.51C180.57,187.58,179.41,186.51,177.81,186.51L177.81,186.51z"/>
		</g>
		<g id="XMLID_33_">
			<path id="XMLID_17_" class="st1" d="M107.28,103.39c0.09,0,0.16,0.01,0.24,0.02h5.49c0.3,0,0.56,0.11,0.77,0.32
				s0.32,0.47,0.32,0.77c0,0.3-0.11,0.56-0.32,0.77s-0.47,0.32-0.77,0.32h-4.61v6h4.61c0.3,0,0.56,0.11,0.77,0.32
				c0.21,0.21,0.32,0.47,0.32,0.77c0,0.3-0.11,0.56-0.32,0.77s-0.47,0.32-0.77,0.32h-4.61v7.12c0,0.3-0.11,0.56-0.32,0.77
				s-0.47,0.32-0.77,0.32c-0.3,0-0.56-0.11-0.77-0.32s-0.32-0.47-0.32-0.77v-16.42c0-0.27,0.1-0.51,0.29-0.73s0.42-0.34,0.68-0.36
				H107.28z"/>
			<path id="XMLID_39_" class="st1" d="M135.75,103.8c1.14,0.49,2.13,1.15,2.96,1.98c0.83,0.84,1.49,1.83,1.98,2.97
				c0.49,1.14,0.74,2.34,0.74,3.6c0,1.26-0.25,2.46-0.74,3.6c-0.49,1.14-1.15,2.13-1.98,2.96c-0.83,0.83-1.81,1.49-2.96,1.98
				c-1.14,0.49-2.34,0.74-3.6,0.74s-2.46-0.25-3.6-0.74c-1.14-0.49-2.13-1.15-2.96-1.98c-0.83-0.83-1.49-1.81-1.98-2.96
				c-0.49-1.14-0.74-2.34-0.74-3.6c0-1.26,0.25-2.46,0.74-3.6c0.49-1.14,1.15-2.13,1.98-2.97c0.83-0.84,1.81-1.5,2.96-1.98
				c1.14-0.49,2.34-0.73,3.6-0.73S134.61,103.31,135.75,103.8z M128.58,106.2c-1.09,0.63-1.95,1.49-2.58,2.58
				c-0.63,1.09-0.94,2.28-0.94,3.57c0,1.29,0.31,2.48,0.94,3.57c0.63,1.09,1.49,1.95,2.58,2.58c1.09,0.63,2.28,0.94,3.57,0.94
				c1.29,0,2.48-0.31,3.57-0.94c1.09-0.63,1.95-1.49,2.58-2.58c0.63-1.09,0.94-2.28,0.94-3.57c0-1.29-0.31-2.48-0.94-3.57
				c-0.63-1.09-1.49-1.95-2.58-2.58s-2.28-0.94-3.57-0.94C130.87,105.26,129.68,105.57,128.58,106.2z"/>
			<path id="XMLID_42_" class="st1" d="M151.3,103.18c0.07,0,0.14,0.01,0.21,0.02h2.74c0.03-0.01,0.06-0.02,0.09-0.02
				s0.06,0.01,0.09,0.02c1.49,0.07,2.73,0.64,3.74,1.71c1.01,1.07,1.48,2.32,1.4,3.75c-0.06,0.97-0.37,1.86-0.94,2.66
				c-0.57,0.8-1.3,1.4-2.19,1.8l4.22,7.07c0.1,0.17,0.15,0.36,0.15,0.56c0,0.31-0.11,0.58-0.32,0.79c-0.21,0.21-0.47,0.32-0.77,0.32
				c-0.17,0-0.35-0.05-0.54-0.16c-0.19-0.11-0.32-0.24-0.41-0.4l-4.59-7.69h-1.8v7.16c0,0.3-0.11,0.56-0.32,0.77
				c-0.21,0.21-0.47,0.32-0.77,0.32c-0.3,0-0.56-0.11-0.77-0.32c-0.21-0.21-0.32-0.47-0.32-0.77v-16.52c0-0.26,0.1-0.49,0.29-0.71
				s0.42-0.34,0.7-0.36H151.3z M152.39,111.43h1.84c0.86-0.03,1.59-0.32,2.2-0.88c0.61-0.56,0.93-1.22,0.98-1.99
				c0.04-0.83-0.23-1.55-0.81-2.18c-0.59-0.62-1.33-0.95-2.23-1h-1.97V111.43z"/>
			<path id="XMLID_48_" class="st1" d="M183.9,104.83c0.16,0.09,0.29,0.22,0.41,0.41s0.17,0.37,0.17,0.56c0,0.3-0.11,0.56-0.32,0.77
				s-0.47,0.32-0.77,0.32c-0.24,0-0.46-0.07-0.66-0.21c-1.09-0.69-2.26-1.05-3.52-1.1c-1.26-0.05-2.45,0.22-3.57,0.8
				c-1.12,0.59-2.03,1.43-2.71,2.52c-0.69,1.09-1.05,2.27-1.09,3.53c-0.04,1.26,0.23,2.45,0.81,3.57c0.59,1.12,1.43,2.02,2.53,2.71
				c1.34,0.84,2.8,1.2,4.36,1.07c1.56-0.13,2.93-0.71,4.1-1.76v-4.46h-2.23c-0.3,0-0.56-0.11-0.77-0.32s-0.32-0.47-0.32-0.77
				c0-0.29,0.1-0.54,0.31-0.75s0.45-0.33,0.74-0.34h3.15c0.03,0,0.06,0,0.1-0.01c0.04-0.01,0.07-0.01,0.1-0.01
				c0.23,0,0.44,0.06,0.62,0.19h0.02c0.03,0.01,0.05,0.03,0.06,0.04h0.02c0.06,0.06,0.1,0.11,0.13,0.17
				c0.03,0.01,0.06,0.04,0.09,0.09c0.03,0.03,0.05,0.05,0.06,0.06v0.02c0.01,0.03,0.02,0.06,0.02,0.09v0.02
				c0.01,0.03,0.03,0.06,0.04,0.09v0.02c0.01,0.03,0.02,0.06,0.02,0.09c0.01,0.04,0.02,0.08,0.02,0.11v0.02
				c0.01,0.06,0.02,0.11,0.02,0.16c0,0.05-0.01,0.1-0.02,0.14v5.57c0.01,0.07,0.02,0.14,0.02,0.21c0,0.23-0.06,0.44-0.19,0.62
				c-0.06,0.09-0.13,0.16-0.21,0.24c-0.01,0.01-0.03,0.03-0.04,0.04c-0.03,0.03-0.06,0.06-0.11,0.09c-1.54,1.44-3.36,2.27-5.45,2.48
				c-2.09,0.21-4.04-0.25-5.84-1.38c-1.41-0.89-2.5-2.06-3.27-3.53c-0.76-1.46-1.12-3.02-1.06-4.67c0.06-1.65,0.53-3.18,1.41-4.6
				c0.84-1.33,1.94-2.37,3.28-3.13c1.34-0.76,2.77-1.16,4.29-1.2C180.53,103.33,182.28,103.81,183.9,104.83z"/>
			<path id="XMLID_58_" class="st1" d="M195.71,103.18c0.07,0,0.14,0.01,0.21,0.02h2.74c0.03-0.01,0.06-0.02,0.09-0.02
				c0.03,0,0.06,0.01,0.09,0.02c1.49,0.07,2.73,0.64,3.74,1.71c1.01,1.07,1.48,2.32,1.4,3.75c-0.06,0.97-0.37,1.86-0.94,2.66
				c-0.57,0.8-1.3,1.4-2.19,1.8l4.22,7.07c0.1,0.17,0.15,0.36,0.15,0.56c0,0.31-0.11,0.58-0.32,0.79c-0.21,0.21-0.47,0.32-0.77,0.32
				c-0.17,0-0.35-0.05-0.54-0.16c-0.19-0.11-0.32-0.24-0.41-0.4l-4.59-7.69h-1.8v7.16c0,0.3-0.11,0.56-0.32,0.77
				c-0.21,0.21-0.47,0.32-0.77,0.32c-0.3,0-0.56-0.11-0.77-0.32c-0.21-0.21-0.32-0.47-0.32-0.77v-16.52c0-0.26,0.1-0.49,0.29-0.71
				s0.42-0.34,0.7-0.36H195.71z M196.81,111.43h1.84c0.86-0.03,1.59-0.32,2.2-0.88c0.61-0.56,0.93-1.22,0.98-1.99
				c0.04-0.83-0.23-1.55-0.81-2.18c-0.59-0.62-1.33-0.95-2.23-1h-1.97V111.43z"/>
			<path id="XMLID_65_" class="st1" d="M220.64,103.24c0.06,0,0.12,0.01,0.19,0.02c0.03,0.01,0.06,0.02,0.09,0.02
				c0.04,0.01,0.09,0.04,0.13,0.06c0.06,0.03,0.11,0.06,0.17,0.09v0.02c0.04,0.03,0.07,0.05,0.09,0.06
				c0.09,0.09,0.16,0.17,0.21,0.26v0.02c0.01,0.04,0.03,0.08,0.04,0.11c0.01,0.03,0.03,0.05,0.04,0.06v0.04
				c0.01,0.01,0.02,0.04,0.02,0.06v0.04l5.44,16.2c0.04,0.11,0.06,0.24,0.06,0.36c0,0.31-0.11,0.58-0.32,0.8
				c-0.21,0.22-0.47,0.33-0.77,0.33c-0.23,0-0.44-0.08-0.64-0.23s-0.33-0.33-0.41-0.55l-1.71-5.14h-5.42l-1.71,5.14
				c-0.07,0.21-0.21,0.4-0.41,0.55c-0.2,0.15-0.41,0.23-0.64,0.23c-0.3,0-0.56-0.11-0.77-0.33S214,121,214,120.69
				c0-0.13,0.03-0.25,0.09-0.36l5.42-16.22c0.01-0.06,0.04-0.11,0.06-0.17v-0.02c0.01-0.03,0.03-0.06,0.04-0.09v-0.02
				c0.01-0.03,0.04-0.05,0.06-0.06v-0.02c0.01-0.03,0.04-0.05,0.06-0.06v-0.02c0.01-0.03,0.04-0.06,0.06-0.09l0.02-0.02
				c0.01-0.01,0.04-0.03,0.06-0.04c0.03-0.03,0.06-0.05,0.09-0.06l0.02-0.02c0.04-0.03,0.09-0.05,0.15-0.06
				c0.1-0.04,0.21-0.07,0.34-0.09H220.64z M218.61,113.66h3.92l-1.97-5.83L218.61,113.66z"/>
			<path id="XMLID_68_" class="st1" d="M248,103.22c0.3,0,0.56,0.11,0.77,0.33c0.21,0.22,0.32,0.49,0.32,0.79
				c0,0.31-0.11,0.57-0.32,0.79c-0.21,0.22-0.47,0.33-0.77,0.33h-4.39v15.22c0,0.31-0.11,0.58-0.32,0.8
				c-0.21,0.22-0.47,0.33-0.77,0.33c-0.3,0-0.56-0.11-0.77-0.33c-0.21-0.22-0.32-0.49-0.32-0.8v-15.22H237
				c-0.3,0-0.56-0.11-0.77-0.33c-0.21-0.22-0.32-0.48-0.32-0.78c0-0.3,0.1-0.56,0.3-0.78c0.2-0.22,0.44-0.34,0.73-0.35H248z"/>
			<path id="XMLID_70_" class="st1" d="M258.95,103.28c0.3,0,0.56,0.11,0.77,0.32c0.21,0.21,0.32,0.47,0.32,0.77v16.42
				c0,0.3-0.11,0.56-0.32,0.77c-0.21,0.21-0.47,0.32-0.77,0.32c-0.3,0-0.56-0.11-0.77-0.32c-0.21-0.21-0.32-0.47-0.32-0.77v-16.42
				c0-0.27,0.09-0.51,0.28-0.73c0.19-0.21,0.41-0.34,0.69-0.36H258.95z"/>
			<path id="XMLID_72_" class="st1" d="M277.83,104.45c0.91,0.92,1.36,2.02,1.36,3.31v0.02c0,0.3-0.1,0.56-0.31,0.78
				c-0.21,0.22-0.46,0.33-0.77,0.33c-0.31,0-0.57-0.11-0.78-0.33c-0.21-0.22-0.32-0.48-0.32-0.78v-0.02c0-0.7-0.24-1.29-0.71-1.77
				s-1.05-0.72-1.74-0.72c-0.69,0-1.27,0.24-1.75,0.72s-0.72,1.07-0.72,1.77s0.24,1.29,0.71,1.77s1.04,0.73,1.71,0.74h0.21
				c1.54,0.04,2.85,0.63,3.93,1.76c1.08,1.13,1.62,2.47,1.62,4.03c0,1.61-0.56,2.99-1.68,4.13c-1.12,1.14-2.47,1.7-4.05,1.7
				c-1.58,0-2.93-0.57-4.05-1.7c-1.12-1.14-1.68-2.51-1.68-4.13c0-0.3,0.11-0.56,0.32-0.77c0.21-0.21,0.47-0.32,0.77-0.32
				c0.3,0,0.56,0.11,0.77,0.32c0.21,0.21,0.32,0.47,0.32,0.77c0,1.01,0.35,1.87,1.04,2.57c0.69,0.7,1.53,1.05,2.52,1.05
				c0.99,0,1.82-0.35,2.51-1.05c0.69-0.7,1.03-1.56,1.03-2.57c0-0.97-0.33-1.8-1-2.5c-0.66-0.69-1.48-1.05-2.45-1.08h-0.08
				c-1.27,0-2.37-0.46-3.28-1.39s-1.37-2.04-1.37-3.32c0-1.29,0.46-2.39,1.37-3.31c0.91-0.92,2.01-1.38,3.28-1.38
				C275.83,103.07,276.92,103.53,277.83,104.45z"/>
		</g>
	</g>
</g>
</svg>
