<?xml version="1.0" ?><svg enable-background="new 0 0 512 512" id="Layer_1" version="1.1" viewBox="0 0 512 512" xml:space="preserve" xmlns="http://www.w3.org/2000/svg" xmlns:xlink="http://www.w3.org/1999/xlink"><g><g><linearGradient gradientUnits="userSpaceOnUse" id="SVGID_1_" x1="0.0000083" x2="512" y1="256" y2="256"><stop offset="0" style="stop-color:#F67950"/><stop offset="1" style="stop-color:#F15A29"/></linearGradient><circle cx="256" cy="256" fill="url(#SVGID_1_)" r="256"/><linearGradient gradientUnits="userSpaceOnUse" id="SVGID_2_" x1="42.6666756" x2="469.333313" y1="256.0005188" y2="256.0005188"><stop offset="0" style="stop-color:#F15A29"/><stop offset="1" style="stop-color:#F67950"/></linearGradient><path d="M256,469.3338623c-117.6309204,0-213.3333282-95.7018738-213.3333282-213.3333435    c0-117.6309204,95.7024078-213.333313,213.3333282-213.333313c117.636261,0,213.333313,95.7024002,213.333313,213.333313    C469.333313,373.6319885,373.636261,469.3338623,256,469.3338623z" fill="url(#SVGID_2_)"/></g><path d="M245.142395,144h-48l-53.1423798,53.1429291v48L282.857605,384L384,282.857605L245.142395,144z    M229.5861359,229.5866699c-7.8192139,7.8191986-20.4960022,7.8191986-28.3152008,0   c-7.8186646-7.8191986-7.8186646-20.4965363,0-28.3157349c7.8186646-7.8186646,20.4959869-7.8186646,28.3152008,0   C237.4053345,209.0901337,237.4053345,221.7674713,229.5861359,229.5866699z" opacity="0.3"/><path d="M237.142395,136h-48l-53.1423798,53.1429291v48L274.857605,376L376,274.857605L237.142395,136z    M221.5861359,221.5866699c-7.8192139,7.8191986-20.4960022,7.8191986-28.3152008,0   c-7.8186646-7.8191986-7.8186646-20.4965363,0-28.3157349c7.8186646-7.8186646,20.4959869-7.8186646,28.3152008,0   C229.4053345,201.0901337,229.4053345,213.7674713,221.5861359,221.5866699z" fill="#FFFFFF"/></g></svg>