<svg xmlns="http://www.w3.org/2000/svg" viewBox="0 0 120 120" width="120" height="120">
	<style>
		tspan { white-space:pre }
		.shp0 { display: none;fill: #000000 } 
	</style>
	<path id="Shape 1" class="shp0" d="M60 190C-11.89 190 -70 131.89 -70 60C-70 -11.89 -11.89 -70 60 -70C131.89 -70 190 -11.89 190 60C190 131.89 131.89 190 60 190Z" />
	<path id="H " fill="#000000" d="M68.03 42.16Q68.03 41.16 67.57 39.16Q67.12 37.16 66.48 34.62Q65.85 31.99 65.03 29.08Q64.21 26.08 63.58 23.27Q62.94 20.45 62.49 18Q62.03 15.55 62.03 13.91Q62.03 11.82 63.21 10.55Q64.4 9.19 66.21 8.46Q68.03 7.74 70.12 7.46Q72.21 7.19 74.11 7.19Q76.47 7.19 78.65 8.55Q80.92 9.83 81.74 13.19Q82.74 16.73 83.38 20.36Q84.1 23.9 84.65 27.35Q85.19 30.71 85.65 33.89Q86.19 37.07 86.74 39.8Q87.28 41.98 88.1 43.25Q89.01 44.52 90.19 45.25Q91.46 45.88 92.82 46.06Q94.28 46.25 95.91 46.25Q97.73 46.25 99.82 45.88Q101.9 45.52 103.9 45.52Q105.17 45.52 106.35 45.97Q107.63 46.34 108.63 47.43Q109.62 48.42 110.17 50.24Q110.8 52.06 110.8 54.87Q110.8 57.23 109.9 58.87Q108.99 60.41 106.45 60.96L103.18 61.68Q101.63 61.96 100.27 62.14Q99 62.23 97 62.41Q92.73 62.87 92.73 66.13Q92.73 66.41 93.09 68.59Q93.46 70.77 94 74.04Q94.64 77.21 95.37 81.12Q96.09 84.93 96.73 88.48Q97.45 92.02 98 94.83Q98.54 97.56 98.82 98.74Q99.27 100.74 99.54 101.83Q99.82 102.92 99.82 104.82Q99.82 106.28 99 107.73Q98.18 109.09 96.55 110.18Q95 111.27 92.73 112Q90.46 112.63 87.55 112.63Q84.38 112.63 82.92 110.73Q81.56 108.73 81.02 106.19Q79.83 101.46 78.75 96.47Q77.75 91.47 76.75 86.57Q75.84 81.67 74.93 77.03Q74.11 72.31 73.39 68.04Q72.93 66.04 71.75 65.14Q70.57 64.14 68.75 64.14Q62.58 64.14 56.31 64.59Q50.14 64.95 44.14 65.23Q42.05 65.41 40.87 66.59Q39.69 67.77 39.69 69.68Q39.69 73.95 39.78 78.12Q39.87 82.3 39.87 86.66Q39.87 91.66 39.69 96.92Q39.6 102.19 39.33 107.09Q39.15 108.91 38.24 110.09Q37.42 111.27 36.06 112Q34.79 112.73 33.06 113Q31.43 113.27 29.7 113.27Q25.43 113.27 23.07 111.91Q20.71 110.46 20.71 107.09Q20.71 102.01 20.98 96.47Q21.26 90.93 21.26 85.3Q21.26 81.48 21.17 77.94Q21.07 74.31 21.07 70.49Q21.07 68.77 20.26 67.95Q19.53 67.04 18.44 66.5Q17.35 65.95 15.99 65.5Q14.63 64.95 13.54 63.96Q12.45 62.96 11.63 61.05Q10.9 59.14 10.9 55.78Q10.9 53.96 11.54 52.97Q12.26 51.88 13.26 51.24Q14.35 50.6 15.53 50.24Q16.71 49.79 17.71 49.15Q18.8 48.52 19.44 47.61Q20.17 46.61 20.17 44.79Q20.17 43.7 20.08 42.25Q19.98 40.71 19.89 39.34Q19.8 37.98 19.71 36.98Q19.62 35.89 19.62 35.53Q19.62 32.44 20.44 30.62Q21.35 28.72 22.62 27.81Q23.89 26.81 25.43 26.54Q27.07 26.17 28.52 26.17Q33.97 26.17 36.06 28.26Q38.24 30.26 38.42 34.17L38.78 43.7Q38.97 45.88 39.96 47.06Q40.96 48.15 43.23 48.15L63.85 47.43Q66.48 47.24 67.21 45.97Q68.03 44.7 68.03 42.16Z" />
</svg>