<?xml version="1.0" encoding="iso-8859-1"?>
<!-- Generator: Adobe Illustrator 19.0.0, SVG Export Plug-In . SVG Version: 6.00 Build 0)  -->
<svg version="1.1" id="Layer_1" xmlns="http://www.w3.org/2000/svg" xmlns:xlink="http://www.w3.org/1999/xlink" x="0px" y="0px"
	 viewBox="0 0 512 512" style="enable-background:new 0 0 512 512;" xml:space="preserve">
<path style="fill:#A1A7B3;" d="M86.404,507.047c-6.604,6.604-17.265,6.604-23.869,0c-19.573-19.573-27.529-46.307-23.71-71.767
	c2.387-17.504,10.343-34.213,23.71-47.58c6.604-6.604,17.265-6.604,23.869,0s6.604,17.265,0,23.869
	c-19.732,19.732-19.732,51.877,0,71.608C93.008,489.781,93.008,500.442,86.404,507.047z"/>
<path style="fill:#979CA7;" d="M86.404,507.047c-6.604,6.604-17.265,6.604-23.869,0c-19.573-19.573-27.529-46.307-23.71-71.767
	l47.58-47.58c6.604,6.604,6.604,17.265,0,23.869c-19.732,19.732-19.732,51.877,0,71.608
	C93.008,489.781,93.008,500.442,86.404,507.047z"/>
<path style="fill:#58718C;" d="M288.418,281.163L135.177,413.559c-24.585,23.949-54.9,16.708-72.244-2.387
	c-16.55-17.982-21.483-46.466,0.637-69.221L195.965,188.71c6.126-7.081,16.788-7.876,23.869-1.75l70.335,70.335
	C296.294,264.375,295.499,275.037,288.418,281.163z"/>
<path style="fill:#50667F;" d="M288.418,281.163L135.177,413.559c-24.585,23.949-54.9,16.708-72.244-2.387l190.557-190.557
	l36.68,36.68C296.294,264.375,295.499,275.037,288.418,281.163z"/>
<path style="fill:#C4CAD9;" d="M392.586,200.584c18.999-3.76,37.133-12.983,51.858-27.707c39.548-39.548,39.548-103.668,0-143.216
	s-103.668-39.548-143.216,0c-14.725,14.725-23.947,32.857-27.707,51.858L392.586,200.584z"/>
<path style="fill:#B8BFCC;" d="M392.586,200.584c18.999-3.76,37.133-12.983,51.858-27.707c39.548-39.548,39.548-103.668,0-143.216
	l-111.39,111.39L392.586,200.584z"/>
<path style="fill:#E55639;" d="M301.227,316.092L158.012,172.876c-6.591-6.591-6.591-17.278,0-23.869l95.477-95.477
	c6.591-6.591,17.278-6.591,23.869,0l143.216,143.216c6.591,6.591,6.591,17.278,0,23.869l-95.477,95.477
	C318.506,322.684,307.819,322.684,301.227,316.092z"/>
<path style="fill:#CF4529;" d="M420.574,196.746l-71.608-71.608L229.62,244.484l71.608,71.608c6.591,6.591,17.278,6.591,23.869,0
	l95.477-95.477C427.165,214.023,427.165,203.337,420.574,196.746z"/>
<path style="fill:#E6EEFF;" d="M327.523,218.094c-6.639,6.639-17.216,6.639-23.854,0l-47.821-47.821
	c-6.639-6.639-6.639-17.328,0-23.854c6.639-6.639,17.216-6.639,23.854,0l47.821,47.821
	C334.163,200.767,334.163,211.455,327.523,218.094z"/>
<path style="fill:#DAE2F2;" d="M327.523,218.094c-6.639,6.639-17.216,6.639-23.854,0l-23.854-23.854l23.854-23.854l23.854,23.854
	C334.163,200.767,334.163,211.455,327.523,218.094z"/>
<g>
</g>
<g>
</g>
<g>
</g>
<g>
</g>
<g>
</g>
<g>
</g>
<g>
</g>
<g>
</g>
<g>
</g>
<g>
</g>
<g>
</g>
<g>
</g>
<g>
</g>
<g>
</g>
<g>
</g>
</svg>
