<?xml version="1.0" encoding="iso-8859-1"?>
<!-- Generator: Adobe Illustrator 19.0.0, SVG Export Plug-In . SVG Version: 6.00 Build 0)  -->
<svg version="1.1" id="Capa_1" xmlns="http://www.w3.org/2000/svg" xmlns:xlink="http://www.w3.org/1999/xlink" x="0px" y="0px"
	 viewBox="0 0 512 512" style="enable-background:new 0 0 512 512;" xml:space="preserve">
<circle style="fill:#FAD87C;" cx="256" cy="256" r="181.45"/>
<g>
	<path style="fill:#FEBE40;" d="M256,74.554c-5.053,0-10.055,0.217-15.003,0.622C334.187,82.804,407.44,160.843,407.44,256
		s-73.253,173.196-166.443,180.824c4.948,0.405,9.95,0.622,15.003,0.622c100.21,0,181.446-81.236,181.446-181.446
		S356.21,74.554,256,74.554z"/>
	<path style="fill:#FEBE40;" d="M377.621,314.467c-9.208,24.337-25.572,45.148-46.519,59.87
		c-20.916,14.68-46.394,23.301-73.88,23.301c-27.487,0-52.965-8.622-73.88-23.301c-20.947-14.722-37.312-35.533-46.519-59.87
		c0,0,69.454-16.467,120.4-16.467S377.621,314.467,377.621,314.467z"/>
</g>
<path style="fill:#F7F8EB;" d="M377.621,314.467c-3.087,8.172-6.989,15.946-11.604,23.228c-21.899,1.318-70.564,3.966-108.796,3.966
	s-86.897-2.647-108.796-3.966c-4.614-7.282-8.517-15.056-11.604-23.228c0,0,69.454-16.467,120.4-16.467
	S377.621,314.467,377.621,314.467z"/>
<g>
	<path style="fill:#F04348;" d="M331.102,374.337c-20.916,14.68-46.394,23.301-73.88,23.301c-27.487,0-52.965-8.622-73.88-23.301
		c17.609-9.082,44.165-14.868,73.88-14.868S313.492,365.255,331.102,374.337z"/>
	<path style="fill:#F04348;" d="M172.32,158.675c-13.183,8.184-13.042,23.298-13.042,23.298s-13.483-6.831-26.666,1.354
		c-11.754,7.297-12.861,23.59-4.717,36.708c9.426,15.184,31.622,26.295,69.982,24.113c18.972-33.411,18.861-58.232,9.435-73.416
		C199.167,157.613,184.073,151.378,172.32,158.675z"/>
	<path style="fill:#F04348;" d="M326.484,158.675c13.183,8.184,13.042,23.298,13.042,23.298s13.483-6.831,26.666,1.354
		c11.754,7.297,12.861,23.59,4.717,36.708c-9.426,15.184-31.622,26.295-69.982,24.113c-18.972-33.411-18.861-58.232-9.435-73.416
		C299.637,157.613,314.73,151.378,326.484,158.675z"/>
</g>
<path d="M256,44.294c4.143,0,7.5-3.358,7.5-7.5V7.5c0-4.142-3.357-7.5-7.5-7.5s-7.5,3.358-7.5,7.5v29.294
	C248.5,40.937,251.857,44.294,256,44.294z"/>
<path d="M256,467.706c-4.143,0-7.5,3.358-7.5,7.5V504.5c0,4.142,3.357,7.5,7.5,7.5s7.5-3.358,7.5-7.5v-29.294
	C263.5,471.063,260.143,467.706,256,467.706z"/>
<path d="M139.902,69.912c1.39,2.406,3.91,3.751,6.502,3.751c1.272,0,2.563-0.324,3.743-1.006c3.587-2.071,4.816-6.658,2.745-10.245
	l-14.647-25.37c-2.072-3.588-6.659-4.816-10.245-2.745c-3.587,2.071-4.816,6.658-2.745,10.245L139.902,69.912z"/>
<path d="M372.098,442.088c-2.072-3.587-6.659-4.817-10.245-2.745c-3.587,2.071-4.816,6.658-2.745,10.245l14.647,25.37
	c1.39,2.406,3.91,3.751,6.502,3.751c1.272,0,2.563-0.324,3.743-1.006c3.587-2.071,4.816-6.658,2.745-10.245L372.098,442.088z"/>
<path d="M37.043,138.245l25.369,14.647c1.182,0.682,2.471,1.006,3.743,1.006c2.592,0,5.113-1.346,6.502-3.751
	c2.071-3.587,0.842-8.174-2.745-10.245l-25.369-14.647c-3.589-2.072-8.175-0.842-10.245,2.745
	C32.227,131.587,33.456,136.174,37.043,138.245z"/>
<path d="M474.957,373.755l-25.369-14.647c-3.59-2.073-8.175-0.842-10.245,2.745c-2.071,3.587-0.842,8.174,2.745,10.245
	l25.369,14.647c1.182,0.682,2.471,1.006,3.743,1.006c2.592,0,5.113-1.346,6.502-3.751
	C479.773,380.413,478.544,375.826,474.957,373.755z"/>
<path d="M44.294,256c0-4.142-3.357-7.5-7.5-7.5H7.5c-4.143,0-7.5,3.358-7.5,7.5s3.357,7.5,7.5,7.5h29.294
	C40.937,263.5,44.294,260.142,44.294,256z"/>
<path d="M504.5,248.5h-29.294c-4.143,0-7.5,3.358-7.5,7.5s3.357,7.5,7.5,7.5H504.5c4.143,0,7.5-3.358,7.5-7.5
	S508.643,248.5,504.5,248.5z"/>
<path d="M62.412,359.108l-25.369,14.647c-3.587,2.071-4.816,6.658-2.745,10.245c1.39,2.406,3.91,3.751,6.502,3.751
	c1.272,0,2.563-0.324,3.743-1.006l25.369-14.647c3.587-2.071,4.816-6.658,2.745-10.245S65.997,357.036,62.412,359.108z"/>
<path d="M445.845,153.898c1.272,0,2.563-0.324,3.743-1.006l25.369-14.647c3.587-2.071,4.816-6.658,2.745-10.245
	c-2.072-3.587-6.659-4.817-10.245-2.745l-25.369,14.647c-3.587,2.071-4.816,6.658-2.745,10.245
	C440.732,152.553,443.253,153.898,445.845,153.898z"/>
<path d="M150.147,439.343c-3.586-2.073-8.175-0.843-10.245,2.745l-14.647,25.37c-2.071,3.587-0.842,8.174,2.745,10.245
	c1.181,0.682,2.471,1.006,3.743,1.006c2.592,0,5.113-1.345,6.502-3.751l14.647-25.37
	C154.964,446.001,153.734,441.414,150.147,439.343z"/>
<path d="M361.853,72.657c1.181,0.682,2.471,1.006,3.743,1.006c2.592,0,5.113-1.345,6.502-3.751l14.647-25.37
	c2.071-3.587,0.842-8.174-2.745-10.245c-3.586-2.072-8.175-0.843-10.245,2.745l-14.647,25.37
	C357.036,65.999,358.266,70.586,361.853,72.657z"/>
<path d="M442.357,224.659c-0.683-4.085-4.545-6.847-8.633-6.162c-4.086,0.683-6.845,4.548-6.162,8.633
	c1.582,9.468,2.384,19.182,2.384,28.869c0,95.915-78.032,173.946-173.946,173.946S82.054,351.915,82.054,256
	S160.086,82.054,256,82.054c73.333,0,139.178,46.372,163.847,115.391c1.394,3.9,5.687,5.931,9.587,4.538
	c3.9-1.394,5.933-5.687,4.538-9.587C407.175,117.425,335.654,67.054,256,67.054c-104.186,0-188.946,84.76-188.946,188.946
	S151.814,444.946,256,444.946S444.946,360.186,444.946,256C444.946,245.487,444.075,234.942,442.357,224.659z"/>
<path d="M385.106,314.055c-0.004-0.078-0.014-0.155-0.02-0.233c-0.015-0.175-0.033-0.348-0.061-0.52
	c-0.014-0.09-0.032-0.179-0.05-0.268c-0.031-0.158-0.065-0.315-0.106-0.47c-0.026-0.097-0.054-0.193-0.083-0.29
	c-0.045-0.146-0.094-0.291-0.148-0.434c-0.036-0.097-0.074-0.194-0.115-0.291c-0.061-0.143-0.127-0.283-0.196-0.422
	c-0.03-0.059-0.052-0.121-0.083-0.18c-0.016-0.031-0.037-0.058-0.053-0.088c-0.081-0.147-0.169-0.289-0.259-0.43
	c-0.047-0.073-0.09-0.148-0.139-0.219c-0.115-0.167-0.239-0.327-0.367-0.485c-0.031-0.038-0.059-0.079-0.091-0.117
	c-0.495-0.584-1.084-1.095-1.755-1.512c-0.063-0.039-0.13-0.072-0.194-0.109c-0.155-0.09-0.311-0.179-0.474-0.258
	c-0.1-0.049-0.205-0.09-0.308-0.134c-0.11-0.048-0.215-0.101-0.328-0.144c-0.026-0.01-0.052-0.016-0.079-0.025
	c-0.107-0.039-0.218-0.071-0.327-0.105c-0.145-0.046-0.289-0.092-0.434-0.128c-0.028-0.007-0.055-0.018-0.083-0.025
	c-2.871-0.681-70.896-16.669-122.13-16.669c-15.043,0-33.067,1.4-53.57,4.162c-4.105,0.553-6.984,4.329-6.432,8.434
	c0.553,4.105,4.341,6.98,8.434,6.432c19.843-2.673,37.192-4.028,51.568-4.028c39.037,0,89.948,10.031,110.01,14.338
	c-0.014,0.03-0.026,0.06-0.04,0.09c-0.189,0.408-0.389,0.812-0.583,1.218c-0.336,0.704-0.679,1.404-1.028,2.101
	c-0.306,0.608-0.612,1.217-0.927,1.82c-0.159,0.304-0.325,0.604-0.487,0.907c-0.792,1.482-1.61,2.952-2.464,4.401
	c-0.013,0.022-0.025,0.044-0.038,0.065c-25.329,1.489-69.175,3.72-104.442,3.72s-79.113-2.231-104.442-3.72
	c-0.007-0.011-0.013-0.022-0.02-0.034c-0.857-1.452-1.676-2.924-2.471-4.41c-0.167-0.314-0.34-0.625-0.505-0.94
	c-0.312-0.595-0.613-1.195-0.915-1.795c-0.358-0.714-0.71-1.432-1.054-2.155c-0.186-0.389-0.377-0.777-0.559-1.168
	c-0.016-0.035-0.031-0.071-0.047-0.106c6.323-1.362,15.704-3.292,26.773-5.287c4.077-0.734,6.786-4.635,6.051-8.711
	c-0.734-4.076-4.639-6.786-8.711-6.05c-20.952,3.776-35.616,7.24-36.23,7.385c-0.03,0.007-0.058,0.019-0.088,0.026
	c-0.139,0.035-0.277,0.079-0.416,0.123c-0.115,0.036-0.232,0.069-0.345,0.111c-0.025,0.009-0.05,0.015-0.074,0.024
	c-0.107,0.041-0.207,0.091-0.311,0.136c-0.11,0.047-0.222,0.091-0.329,0.144c-0.154,0.075-0.3,0.159-0.447,0.244
	c-0.073,0.042-0.148,0.079-0.22,0.124c-0.205,0.127-0.402,0.264-0.591,0.409c-0.011,0.009-0.023,0.016-0.034,0.024
	c-0.415,0.321-0.791,0.681-1.124,1.073c-0.038,0.045-0.072,0.094-0.109,0.139c-0.122,0.151-0.241,0.303-0.35,0.462
	c-0.052,0.075-0.098,0.154-0.147,0.231c-0.088,0.137-0.174,0.275-0.252,0.418c-0.017,0.031-0.038,0.06-0.055,0.091
	c-0.032,0.061-0.056,0.125-0.086,0.186c-0.067,0.136-0.132,0.272-0.191,0.412c-0.042,0.099-0.08,0.198-0.118,0.298
	c-0.053,0.141-0.101,0.283-0.145,0.426c-0.03,0.098-0.059,0.197-0.085,0.296c-0.04,0.153-0.074,0.307-0.104,0.462
	c-0.018,0.092-0.037,0.184-0.052,0.276c-0.027,0.169-0.044,0.34-0.06,0.511c-0.007,0.081-0.017,0.161-0.021,0.242
	c-0.01,0.186-0.01,0.372-0.006,0.56c0.001,0.069-0.001,0.137,0.002,0.207c0.009,0.197,0.031,0.394,0.056,0.591
	c0.008,0.061,0.011,0.121,0.02,0.181c0.03,0.196,0.073,0.392,0.119,0.588c0.014,0.061,0.023,0.123,0.039,0.184
	c0.052,0.196,0.117,0.391,0.186,0.586c0.019,0.054,0.031,0.11,0.052,0.164c0.538,1.425,1.11,2.838,1.698,4.247
	c0.149,0.356,0.299,0.712,0.451,1.067c0.501,1.172,1.017,2.338,1.551,3.497c0.212,0.46,0.428,0.918,0.645,1.376
	c0.46,0.969,0.931,1.933,1.414,2.892c0.357,0.709,0.722,1.414,1.091,2.116c0.225,0.427,0.455,0.851,0.684,1.276
	c10.003,18.57,24.176,34.58,41.692,46.89c22.988,16.134,50.026,24.662,78.189,24.662c3.521,0,7.023-0.133,10.503-0.398
	c24.356-1.853,47.571-10.147,67.686-24.264c0.001,0,0.001-0.001,0.002-0.002c0,0,0.001,0,0.001-0.001
	c17.504-12.302,31.671-28.302,41.674-46.86c0.236-0.436,0.472-0.871,0.702-1.309c0.368-0.7,0.732-1.403,1.088-2.11
	c0.473-0.937,0.932-1.88,1.383-2.827c0.237-0.498,0.471-0.997,0.702-1.499c0.52-1.128,1.022-2.262,1.51-3.402
	c0.161-0.378,0.321-0.756,0.479-1.135c0.575-1.38,1.135-2.765,1.663-4.16c0.006-0.017,0.014-0.033,0.02-0.05
	c0.095-0.251,0.174-0.504,0.241-0.759c0.011-0.043,0.017-0.087,0.028-0.13c0.052-0.213,0.098-0.426,0.13-0.639
	c0.008-0.053,0.011-0.107,0.018-0.161c0.027-0.204,0.049-0.408,0.058-0.611c0.003-0.065,0.001-0.129,0.002-0.194
	C385.117,314.436,385.117,314.245,385.106,314.055z M252.918,390.057c-0.452-0.016-0.902-0.042-1.353-0.062
	c-0.991-0.046-1.982-0.1-2.969-0.169c-0.509-0.036-1.018-0.076-1.526-0.118c-0.962-0.08-1.922-0.172-2.879-0.274
	c-0.476-0.051-0.953-0.098-1.427-0.155c-1.16-0.137-2.315-0.294-3.467-0.464c-0.252-0.037-0.505-0.067-0.756-0.105
	c-1.399-0.216-2.792-0.459-4.179-0.723c-0.385-0.073-0.767-0.157-1.151-0.234c-1.009-0.202-2.015-0.414-3.017-0.642
	c-0.485-0.11-0.969-0.227-1.452-0.343c-0.921-0.221-1.838-0.454-2.752-0.697c-0.477-0.127-0.955-0.253-1.431-0.385
	c-1.006-0.281-2.007-0.578-3.005-0.885c-0.355-0.109-0.712-0.211-1.066-0.323c-1.338-0.425-2.669-0.872-3.992-1.344
	c-0.294-0.105-0.584-0.219-0.876-0.326c-1.032-0.377-2.061-0.766-3.083-1.171c-0.458-0.182-0.912-0.371-1.368-0.559
	c-0.866-0.356-1.729-0.722-2.588-1.098c-0.473-0.208-0.945-0.417-1.416-0.63c-0.885-0.402-1.763-0.818-2.639-1.242
	c-0.406-0.197-0.815-0.388-1.219-0.589c-1.246-0.62-2.484-1.259-3.711-1.924c16.075-5.545,36.31-8.625,57.626-8.625
	c21.315,0,41.55,3.079,57.625,8.625c-1.234,0.668-2.479,1.311-3.732,1.935c-0.376,0.187-0.756,0.365-1.134,0.548
	c-0.906,0.439-1.815,0.87-2.731,1.285c-0.45,0.205-0.902,0.404-1.354,0.603c-0.882,0.387-1.768,0.763-2.658,1.129
	c-0.436,0.179-0.872,0.361-1.31,0.535c-1.05,0.417-2.107,0.817-3.168,1.204c-0.267,0.097-0.531,0.202-0.799,0.298
	c-1.33,0.475-2.669,0.924-4.015,1.352c-0.337,0.107-0.678,0.204-1.016,0.308c-1.015,0.312-2.033,0.615-3.056,0.9
	c-0.467,0.13-0.935,0.254-1.403,0.378c-0.924,0.246-1.852,0.481-2.782,0.704c-0.476,0.114-0.952,0.229-1.43,0.338
	c-1.01,0.23-2.025,0.443-3.042,0.647c-0.377,0.076-0.753,0.158-1.131,0.23c-1.39,0.265-2.785,0.508-4.186,0.724
	c-0.244,0.038-0.49,0.066-0.735,0.103c-1.16,0.172-2.322,0.329-3.489,0.467c-0.471,0.056-0.944,0.103-1.417,0.153
	c-0.962,0.103-1.925,0.195-2.891,0.275c-0.505,0.042-1.011,0.082-1.517,0.117c-0.99,0.07-1.981,0.124-2.975,0.169
	c-0.45,0.021-0.9,0.047-1.351,0.062c-1.431,0.05-2.865,0.082-4.303,0.082S254.35,390.107,252.918,390.057z M330.306,365.631
	c-19.109-8.711-45.397-13.662-73.085-13.662s-53.977,4.95-73.086,13.662c-7.596-5.748-14.424-12.309-20.403-19.545
	c25.967,1.417,62.873,3.075,93.488,3.075s67.521-1.657,93.488-3.075C344.731,353.323,337.902,359.883,330.306,365.631z"/>
<path d="M152.766,230.813c-3.816-1.615-8.217,0.167-9.831,3.983c-1.614,3.814,0.169,8.216,3.983,9.83
	c11.461,4.851,25.404,7.295,41.557,7.295c3.189,0,6.468-0.096,9.827-0.287c2.543-0.145,4.839-1.57,6.096-3.784
	c24.781-43.639,16.454-69.528,9.285-81.075c-4.913-7.915-11.995-13.871-19.941-16.773c-8.799-3.213-17.811-2.396-25.378,2.3
	c-9.057,5.623-13.17,13.744-15.037,20.083c-6.51-1.138-15.615-1.054-24.671,4.568c-13.433,8.34-17.383,26.395-9.393,42.93
	c1.802,3.729,6.286,5.294,10.016,3.49c3.729-1.802,5.292-6.287,3.49-10.016c-3.813-7.892-4.251-18.662,3.799-23.66
	c9.298-5.772,18.971-1.204,19.32-1.035c2.338,1.184,5.122,1.095,7.346-0.286c2.225-1.381,3.568-3.791,3.544-6.41
	c0.004-0.453,0.202-11.149,9.498-16.92c4.571-2.838,9.223-2.086,12.32-0.955c4.738,1.73,9.237,5.592,12.343,10.595
	c8.801,14.175,6.008,36.678-7.601,62.156C177.104,237.364,163.464,235.342,152.766,230.813z"/>
<path d="M300.502,251.635c3.435,0.195,6.72,0.288,9.873,0.288c42.842-0.001,60.229-17.177,66.906-27.933
	c4.913-7.914,7.11-16.904,6.187-25.313c-1.023-9.312-5.754-17.026-13.319-21.724c-9.06-5.624-18.164-5.707-24.671-4.567
	c-1.867-6.339-5.98-14.461-15.037-20.083c-7.566-4.697-16.58-5.513-25.378-2.3c-7.946,2.902-15.028,8.858-19.941,16.772
	c-7.169,11.548-15.496,37.437,9.285,81.076C295.663,250.065,297.959,251.491,300.502,251.635z M297.865,174.687
	c3.105-5.002,7.604-8.864,12.343-10.594c3.098-1.132,7.749-1.884,12.32,0.955c9.296,5.771,9.494,16.467,9.498,16.855
	c-0.024,2.619,1.29,5.075,3.516,6.456c2.225,1.381,4.979,1.516,7.316,0.333c0.407-0.197,10.081-4.765,19.378,1.006
	c4.571,2.838,5.961,7.341,6.321,10.619c0.551,5.015-0.914,10.759-4.021,15.762c-8.799,14.174-30.214,21.652-59.073,20.762
	C291.858,211.365,289.065,188.862,297.865,174.687z"/>
<g>
</g>
<g>
</g>
<g>
</g>
<g>
</g>
<g>
</g>
<g>
</g>
<g>
</g>
<g>
</g>
<g>
</g>
<g>
</g>
<g>
</g>
<g>
</g>
<g>
</g>
<g>
</g>
<g>
</g>
</svg>
