<?xml version="1.0" encoding="iso-8859-1"?>
<!-- Generator: Adobe Illustrator 19.0.0, SVG Export Plug-In . SVG Version: 6.00 Build 0)  -->
<svg version="1.1" id="Capa_1" xmlns="http://www.w3.org/2000/svg" xmlns:xlink="http://www.w3.org/1999/xlink" x="0px" y="0px"
	 viewBox="0 0 512 512" style="enable-background:new 0 0 512 512;" xml:space="preserve">
<g>
	<g>
		<rect x="91" y="421" width="60" height="30"/>
	</g>
</g>
<g>
	<g>
		<rect x="181" y="60" width="90" height="30"/>
	</g>
</g>
<g>
	<g>
		<path d="M320.858,271c4.491-9.464,7.557-19.566,9.058-30H331c33.084,0,60-26.916,60-60c0-21.958-11.64-41.493-30-52.001V105
			C361,47.103,313.897,0,256,0h-60C138.103,0,91,47.103,91,105v23.999C72.64,139.507,61,159.042,61,181c0,33.084,26.916,60,60,60
			h1.076c3.828,26.645,17.694,50.09,37.635,66.366l-5.725,22.388l-63.28,8.211c-49.909,6.476-88.689,47.864-90.627,98.002
			C0.026,437.328,0,438.702,0,440.053V512h241h195h76V271H320.858z M361,301h30v60h-30V301z M361,181c0,16.542-13.458,30-30,30
			v-38.787l16.337-16.337C355.646,161.33,361,170.758,361,181z M121,211c-16.542,0-30-13.458-30-30
			c0-10.242,5.354-19.67,13.663-25.124L121,172.213V211z M121,121v-16c0-41.355,33.645-75,75-75h60c41.355,0,75,33.645,75,75v16H121
			z M309.786,151l-30,30H172.213l-30-30H309.786z M241,482H30v-41.947c0-36.853,28.646-67.676,64.567-72.337l37.461-4.861
			C149.73,398.372,185.947,421,226,421c5.049,0,10.055-0.378,15-1.086V482z M241,389.49c-4.908,0.995-9.922,1.51-15,1.51
			c-24.979,0-47.869-12.323-61.696-32.333l13.71-1.779l8.583-33.568C198.771,328.267,212.071,331,226,331
			c5.049,0,10.055-0.378,15-1.086V389.49z M241,299.49c-4.908,0.995-9.922,1.51-15,1.51c-41.355,0-75-33.645-75-75v-23.787
			l8.787,8.787h132.427l8.787-8.787V226c0,16.319-5.294,32.067-15.006,45H241V299.49z M482,482h-46H271V301h60v90h90v-90h61V482z"/>
	</g>
</g>
<g>
</g>
<g>
</g>
<g>
</g>
<g>
</g>
<g>
</g>
<g>
</g>
<g>
</g>
<g>
</g>
<g>
</g>
<g>
</g>
<g>
</g>
<g>
</g>
<g>
</g>
<g>
</g>
<g>
</g>
</svg>
